<svg viewBox="0 0 21.8182 21.8182" fill="none" xmlns="http://www.w3.org/2000/svg">
  <path d="M16.8835 15.9588C19.7898 14.6506 21.8182 11.7315 21.8182 8.34588C21.8182 3.74361 18.0746 0 13.4723 0H3.21733C1.4446 0 0 1.4446 0 3.21733V18.6009C0 20.3736 1.4446 21.8182 3.21733 21.8182H18.1918C18.9695 21.8182 19.6364 21.3729 19.9325 20.6548C20.2308 19.9368 20.0732 19.1506 19.5256 18.6009L16.8835 15.9588ZM3.21733 1.30824H13.4723C17.3523 1.30824 20.5099 4.46591 20.5099 8.34588C20.5099 11.38 18.5774 13.9709 15.88 14.9531L6.24503 5.31605C6.12145 5.1946 5.95313 5.12429 5.78267 5.12429H3.21733C2.16477 5.12429 1.30824 4.26989 1.30824 3.2152C1.30824 2.16264 2.16477 1.30824 3.21733 1.30824ZM18.7244 20.1541C18.6903 20.2372 18.5497 20.5099 18.1918 20.5099H3.21733C2.16477 20.5099 1.30824 19.6534 1.30824 18.6009V5.80611C1.84304 6.20028 2.50568 6.43466 3.21733 6.43466H5.51207L18.6009 19.5234C18.8523 19.7791 18.7585 20.0689 18.7244 20.1541Z" fill="#1677FF"/>
  <path d="M18.7244 20.1541C18.6903 20.2372 18.5497 20.5099 18.1918 20.5099H3.21733C2.16477 20.5099 1.30824 19.6534 1.30824 18.6009V5.80611C1.84304 6.20028 2.50568 6.43466 3.21733 6.43466H5.51207L18.6009 19.5234C18.8523 19.7791 18.7585 20.0689 18.7244 20.1541Z" fill="#1677FF"/>
  <path d="M3.21733 1.30824H13.4723C17.3523 1.30824 20.5099 4.46591 20.5099 8.34588C20.5099 11.38 18.5774 13.9709 15.88 14.9531L6.24503 5.31605C6.12145 5.1946 5.95313 5.12429 5.78267 5.12429H3.21733C2.16477 5.12429 1.30824 4.26989 1.30824 3.2152C1.30824 2.16264 2.16477 1.30824 3.21733 1.30824Z" fill="#99CDFF"/>
  <path d="M3.11716 14.0731H9.44529C9.8075 14.0731 10.0994 13.7812 10.0994 13.419C10.0994 13.0568 9.8075 12.7628 9.44529 12.7628H3.11716C2.75495 12.7628 2.46304 13.0568 2.46304 13.419C2.46304 13.7812 2.75495 14.0731 3.11716 14.0731Z" fill="#99CDFF"/>
  <path d="M3.11716 11.4545H7.04401C7.40622 11.4545 7.70026 11.1626 7.70026 10.8004C7.70026 10.4382 7.40622 10.1463 7.04401 10.1463H3.11716C2.75495 10.1463 2.46304 10.4382 2.46304 10.8004C2.46304 11.1626 2.75495 11.4545 3.11716 11.4545Z" fill="#99CDFF"/>
  <path d="M12.0639 15.3814H3.11716C2.75495 15.3814 2.46304 15.6733 2.46304 16.0355C2.46304 16.3977 2.75495 16.6918 3.11716 16.6918H12.0639C12.4261 16.6918 12.718 16.3977 12.718 16.0355C12.718 15.6733 12.424 15.3814 12.0639 15.3814Z" fill="#99CDFF"/>
</svg>
