<svg viewBox="0 0 35 40" xmlns="http://www.w3.org/2000/svg">
  <path fill="#079cee" d="M27.2,10.1c-1.4-0.3-1.6,0.4-1,1.8c3.2,7,0.4,13.9-2.7,15.6c-0.1-0.2-0.1-0.5-0.1-0.7c-0.4-3.3-1.6-6.2-2.5-6.2 c-0.7,0-0.3,2.9-0.4,5.4c-1.1-0.7-1.8-1.1-3-0.9c-1.7,0.3-4,3.9-4.1,3.4c-0.7-4.2,0.9-10.7,3.2-11.4c0.4-0.1,1,0.4,2.3,0.9 c1.1,0.4,1-0.7,0.5-1.1c-1.6-1.2-3.7-1.3-5.5-0.4c-3.4,1.7-4.9,9.2-3.1,12.3c0.7,1.3,2,2.1,3.4,2.4c2.3,0.3,3-0.2,4.8-2.5 c0.3,0.2,0.6,0.4,0.9,0.4c-1.5,4.7-7.1,8.6-8.3,7.9c-5.9-4-4.3-16.8-0.1-28c0.8-2,1.4-4.1,2-6.2c0.6-3-3.2-3.6-5.8-1.4 C5.8,3,4,6.7,2.5,11.1C-2.2,25-0.2,36.7,8.3,39.2c9.8,2.9,14.5-3.2,15.2-9.3c0.6,0.1,1.2,0.1,1.8,0.1c3-0.1,7.3-1.6,8.6-8.2 C34.9,16.8,31.6,11,27.2,10.1z"/>
</svg>
